<svg xmlns="http://www.w3.org/2000/svg"  viewBox="0 0 50 50" width="50px" height="50px"><path d="M 20.863281 1 C 20.007813 1 19.601563 1.421875 19.039063 1.898438 C 18.476563 2.371094 17.855469 3.003906 17.183594 3.761719 C 15.835938 5.277344 14.28125 7.292969 12.796875 9.394531 C 11.308594 11.496094 9.890625 13.679688 8.835938 15.535156 C 8.304688 16.464844 7.867188 17.308594 7.546875 18.039063 C 7.226563 18.769531 7 19.332031 7 20 C 7 21.214844 7.378906 22.339844 8.007813 23.285156 C 8.027344 23.621094 8.230469 27.457031 7.875 32.171875 C 7.5 37.097656 6.394531 42.738281 4.195313 45.359375 C 3.949219 45.628906 3.871094 46.011719 3.992188 46.355469 C 4.113281 46.703125 4.414063 46.953125 4.773438 47.011719 C 5.136719 47.070313 5.5 46.929688 5.726563 46.640625 C 8.566406 43.261719 9.480469 37.402344 9.867188 32.328125 C 10.097656 29.308594 10.097656 26.9375 10.0625 25.203125 C 10.738281 25.589844 11.492188 25.859375 12.296875 25.953125 C 13.359375 36.570313 17.273438 43.65625 22.652344 46.855469 C 22.804688 46.945313 22.980469 46.996094 23.160156 46.996094 L 26.839844 46.996094 C 27.019531 46.996094 27.195313 46.949219 27.347656 46.855469 C 32.726563 43.65625 36.640625 36.570313 37.703125 25.953125 C 38.507813 25.859375 39.257813 25.589844 39.9375 25.203125 C 39.902344 26.9375 39.902344 29.308594 40.132813 32.328125 C 40.519531 37.402344 41.433594 43.261719 44.277344 46.640625 C 44.5 46.929688 44.863281 47.070313 45.226563 47.011719 C 45.585938 46.953125 45.886719 46.703125 46.007813 46.355469 C 46.128906 46.011719 46.050781 45.628906 45.808594 45.359375 C 43.605469 42.738281 42.5 37.097656 42.125 32.171875 C 41.769531 27.457031 41.972656 23.621094 41.992188 23.285156 C 42.621094 22.339844 43 21.214844 43 20 C 43 19.332031 42.773438 18.769531 42.453125 18.039063 C 42.132813 17.308594 41.695313 16.464844 41.167969 15.535156 C 40.109375 13.679688 38.691406 11.496094 37.203125 9.394531 C 35.71875 7.292969 34.164063 5.277344 32.816406 3.761719 C 32.144531 3.003906 31.523438 2.371094 30.960938 1.898438 C 30.398438 1.421875 29.992188 1 29.136719 1 C 28.285156 1 27.585938 1.3125 26.894531 1.554688 C 26.203125 1.800781 25.542969 2 25 2 C 24.457031 2 23.796875 1.800781 23.105469 1.554688 C 22.414063 1.3125 21.714844 1 20.863281 1 Z M 20.960938 3.019531 C 21.238281 3.046875 21.777344 3.207031 22.4375 3.445313 C 23.160156 3.699219 24.019531 4 25 4 C 25.980469 4 26.839844 3.699219 27.5625 3.445313 C 28.222656 3.207031 28.761719 3.046875 29.039063 3.019531 C 29.0625 3.054688 29.351563 3.15625 29.671875 3.425781 C 30.113281 3.796875 30.683594 4.378906 31.320313 5.09375 C 32.589844 6.519531 34.117188 8.492188 35.574219 10.546875 C 37.027344 12.605469 38.417969 14.75 39.429688 16.527344 C 39.9375 17.414063 40.347656 18.210938 40.621094 18.839844 C 40.894531 19.464844 41 19.980469 41 20 C 41 21.898438 39.65625 23.5 37.867188 23.898438 C 37.945313 22.664063 37.996094 21.394531 37.996094 20.070313 C 37.996094 20.046875 38 20.019531 38 19.996094 C 38 19.996094 38 19.992188 38 19.988281 C 37.996094 19.957031 37.996094 19.925781 37.992188 19.894531 C 37.988281 19.871094 37.988281 19.847656 37.984375 19.828125 C 37.980469 19.8125 37.976563 19.796875 37.972656 19.78125 C 37.972656 19.777344 37.972656 19.773438 37.972656 19.769531 C 37.96875 19.757813 37.964844 19.742188 37.960938 19.730469 C 37.957031 19.710938 37.949219 19.691406 37.945313 19.675781 C 37.941406 19.660156 37.933594 19.644531 37.925781 19.628906 C 37.925781 19.628906 37.925781 19.628906 37.925781 19.625 C 37.921875 19.613281 37.914063 19.597656 37.90625 19.582031 C 37.878906 19.511719 36.882813 17.03125 35.246094 14.132813 C 33.585938 11.195313 31.332031 7.835938 28.515625 6.140625 C 28.222656 5.96875 27.859375 5.953125 27.550781 6.105469 C 25.792969 6.984375 24.207031 6.984375 22.449219 6.105469 C 22.296875 6.03125 22.128906 5.992188 21.964844 6 C 21.792969 6.007813 21.628906 6.054688 21.484375 6.140625 C 18.667969 7.835938 16.414063 11.195313 14.753906 14.132813 C 13.136719 16.992188 12.164063 19.40625 12.109375 19.539063 C 12.109375 19.539063 12.109375 19.542969 12.109375 19.542969 C 12.109375 19.546875 12.074219 19.628906 12.074219 19.628906 C 12.058594 19.660156 12.046875 19.691406 12.039063 19.722656 C 12.039063 19.722656 12.039063 19.726563 12.035156 19.730469 C 12.011719 19.816406 12 19.90625 12 19.996094 C 12 21.347656 12.050781 22.636719 12.128906 23.898438 C 10.34375 23.496094 9 21.898438 9 20 C 9 19.980469 9.105469 19.464844 9.378906 18.839844 C 9.652344 18.210938 10.0625 17.414063 10.570313 16.527344 C 11.582031 14.75 12.972656 12.605469 14.425781 10.546875 C 15.882813 8.492188 17.410156 6.519531 18.679688 5.09375 C 19.316406 4.378906 19.886719 3.796875 20.328125 3.425781 C 20.648438 3.15625 20.9375 3.054688 20.960938 3.019531 Z M 22.285156 8.074219 C 24.074219 8.765625 25.925781 8.765625 27.714844 8.074219 C 29.820313 9.457031 31.96875 12.40625 33.503906 15.117188 C 34.675781 17.191406 35.042969 18.160156 35.402344 18.996094 L 14.597656 18.996094 C 14.957031 18.160156 15.324219 17.191406 16.496094 15.117188 C 18.03125 12.40625 20.179688 9.457031 22.285156 8.074219 Z M 25 12.996094 C 23.894531 12.996094 23 13.890625 23 14.996094 C 23 16.101563 23.894531 16.996094 25 16.996094 C 26.105469 16.996094 27 16.101563 27 14.996094 C 27 13.890625 26.105469 12.996094 25 12.996094 Z M 15.792969 21 L 34.207031 21 C 33.78125 21.300781 33.183594 21.613281 32.4375 21.886719 C 30.597656 22.554688 27.9375 22.996094 25 22.996094 C 22.0625 22.996094 19.402344 22.554688 17.5625 21.886719 C 16.816406 21.613281 16.21875 21.300781 15.792969 21 Z M 14.125 22.222656 C 14.15625 22.253906 14.183594 22.285156 14.214844 22.3125 C 14.449219 22.515625 14.722656 22.703125 15.007813 22.878906 C 15.109375 23.8125 15.367188 24.804688 15.8125 25.699219 C 16.402344 26.875 17.457031 28 18.957031 28 C 20.125 28 21.300781 27.726563 22.265625 27.082031 C 22.988281 26.601563 23.578125 25.859375 23.828125 24.953125 C 24.21875 24.96875 24.597656 24.996094 25 24.996094 C 25.734375 24.996094 26.445313 24.96875 27.140625 24.921875 C 27.652344 26.300781 29.296875 27 30.957031 27 C 32.496094 27 33.4375 25.226563 33.792969 23.496094 C 34.570313 23.164063 35.246094 22.777344 35.785156 22.3125 C 35.816406 22.285156 35.839844 22.253906 35.871094 22.226563 C 35.757813 25.28125 35.417969 28.046875 34.894531 30.53125 L 33.019531 31.785156 L 26.582031 27.1875 C 26.414063 27.066406 26.207031 27 26 27 L 24 27 C 23.792969 27 23.585938 27.066406 23.417969 27.1875 L 16.980469 31.785156 L 15.101563 30.53125 C 14.582031 28.046875 14.242188 25.28125 14.125 22.222656 Z M 17.261719 23.878906 C 18.558594 24.3125 20.085938 24.628906 21.765625 24.808594 C 21.632813 25.042969 21.429688 25.234375 21.15625 25.417969 C 20.617188 25.773438 19.792969 26 18.957031 26 C 18.457031 26 18.015625 25.625 17.605469 24.800781 C 17.464844 24.527344 17.355469 24.207031 17.261719 23.878906 Z M 24.320313 29 L 25.679688 29 L 32.417969 33.8125 C 32.757813 34.054688 33.207031 34.0625 33.554688 33.832031 L 34.167969 33.421875 C 33.816406 34.613281 33.421875 35.726563 32.980469 36.753906 L 26.582031 32.1875 C 26.414063 32.066406 26.207031 32 26 32 L 24 32 C 23.792969 32 23.585938 32.066406 23.417969 32.1875 L 17.019531 36.753906 C 16.578125 35.726563 16.183594 34.613281 15.832031 33.421875 L 16.445313 33.832031 C 16.792969 34.0625 17.242188 34.054688 17.582031 33.8125 Z M 24.320313 34 L 25.679688 34 L 32.105469 38.59375 C 31.316406 40.085938 30.429688 41.367188 29.46875 42.441406 L 27.554688 41.167969 C 27.390625 41.058594 27.199219 41 27 41 L 23 41 C 22.800781 41 22.609375 41.058594 22.445313 41.167969 L 20.53125 42.441406 C 19.570313 41.367188 18.679688 40.085938 17.890625 38.59375 Z M 21 38 C 20.640625 37.996094 20.304688 38.183594 20.121094 38.496094 C 19.941406 38.808594 19.941406 39.191406 20.121094 39.503906 C 20.304688 39.816406 20.640625 40.003906 21 40 L 29 40 C 29.359375 40.003906 29.695313 39.816406 29.878906 39.503906 C 30.058594 39.191406 30.058594 38.808594 29.878906 38.496094 C 29.695313 38.183594 29.359375 37.996094 29 38 Z M 23.300781 43 L 26.699219 43 L 28.003906 43.875 C 27.511719 44.292969 27.003906 44.675781 26.484375 44.996094 L 23.515625 44.996094 C 22.992188 44.675781 22.488281 44.292969 21.992188 43.875 Z"/></svg>